<svg viewBox="0 0 1280 670" xmlns="http://www.w3.org/2000/svg" font-family="&#39;PP Mori&#39;, -apple-system, system-ui, sans-serif">
  <defs>
    <marker id="arrow" viewBox="0 0 10 10" refX="8" refY="5" markerWidth="7" markerHeight="7" orient="auto-start-reverse">
      <path d="M2 1L8 5L2 9" fill="none" stroke="#6b6863" stroke-width="1.5" stroke-linecap="round" stroke-linejoin="round"></path>
    </marker>
  </defs>

  <rect x="0" y="0" width="1280" height="670" fill="#fbfaf9"></rect>

  <rect x="30" y="50" width="1220" height="130" rx="16" fill="#eaf3fd"></rect>
  <text x="50" y="72" fill="#14130f" font-size="16" font-weight="600">Bioanalytical</text>

  <rect x="30" y="270" width="1220" height="130" rx="16" fill="#f2f1ec"></rect>
  <text x="50" y="292" fill="#14130f" font-size="16" font-weight="600">Bioprocess</text>

  <rect x="30" y="500" width="1220" height="130" rx="16" fill="#ece8e1"></rect>
  <text x="50" y="522" fill="#14130f" font-size="16" font-weight="600">Core platform</text>

  <line x1="120" y1="150" x2="120" y2="320" stroke="#6b6863" stroke-width="1.5" marker-start="url(#arrow)"></line>
  <line x1="120" y1="380" x2="120" y2="550" stroke="#6b6863" stroke-width="1.5" marker-start="url(#arrow)"></line>
  <line x1="280" y1="150" x2="280" y2="320" stroke="#6b6863" stroke-width="1.5" marker-start="url(#arrow)"></line>
  <line x1="440" y1="150" x2="440" y2="320" stroke="#6b6863" stroke-width="1.5" marker-start="url(#arrow)"></line>
  <line x1="440" y1="380" x2="440" y2="550" stroke="#6b6863" stroke-width="1.5" marker-start="url(#arrow)"></line>
  <line x1="600" y1="150" x2="600" y2="320" stroke="#6b6863" stroke-width="1.5" marker-start="url(#arrow)"></line>
  <line x1="600" y1="380" x2="600" y2="550" stroke="#6b6863" stroke-width="1.5" marker-start="url(#arrow)"></line>
  <line x1="1080" y1="380" x2="1080" y2="550" stroke="#6b6863" stroke-width="1.5" marker-start="url(#arrow)"></line>
  <path d="M 1080 150 L 1080 210 L 1180 210 L 1180 490 L 1100 490 L 1100 550" fill="none" stroke="#6b6863" stroke-width="1.5" marker-start="url(#arrow)"></path>

  <rect x="50" y="90" width="140" height="60" rx="8" fill="#ffffff" stroke="#e4e0d8" stroke-width="1.5"></rect>
  <text x="120" y="124" text-anchor="middle" fill="#14130f" font-size="14" font-weight="600">Procedures</text>

  <rect x="210" y="90" width="140" height="60" rx="8" fill="#ffffff" stroke="#e4e0d8" stroke-width="1.5"></rect>
  <text x="280" y="116" text-anchor="middle" fill="#14130f" font-size="14" font-weight="600">Experiment</text>
  <text x="280" y="132" text-anchor="middle" fill="#14130f" font-size="14" font-weight="600">planning</text>

  <rect x="370" y="90" width="140" height="60" rx="8" fill="#ffffff" stroke="#e4e0d8" stroke-width="1.5"></rect>
  <text x="440" y="124" text-anchor="middle" fill="#14130f" font-size="14" font-weight="600">Worksheets</text>

  <rect x="530" y="90" width="140" height="60" rx="8" fill="#ffffff" stroke="#e4e0d8" stroke-width="1.5"></rect>
  <text x="600" y="124" text-anchor="middle" fill="#14130f" font-size="14" font-weight="600">Analysis</text>

  <rect x="690" y="90" width="140" height="60" rx="8" fill="#ffffff" stroke="#0688f0" stroke-width="2"></rect>
  <text x="760" y="124" text-anchor="middle" fill="#14130f" font-size="14" font-weight="600">Plate design</text>

  <rect x="850" y="90" width="140" height="60" rx="8" fill="#ffffff" stroke="#0688f0" stroke-width="2"></rect>
  <text x="920" y="124" text-anchor="middle" fill="#14130f" font-size="14" font-weight="600">Tests</text>

  <rect x="1010" y="90" width="140" height="60" rx="8" fill="#ffffff" stroke="#e4e0d8" stroke-width="1.5"></rect>
  <text x="1080" y="116" text-anchor="middle" fill="#14130f" font-size="14" font-weight="600">Publish /</text>
  <text x="1080" y="132" text-anchor="middle" fill="#14130f" font-size="14" font-weight="600">review</text>

  <rect x="50" y="320" width="140" height="60" rx="8" fill="#ffffff" stroke="#e4e0d8" stroke-width="1.5"></rect>
  <text x="120" y="354" text-anchor="middle" fill="#6b6863" font-size="14" font-weight="600">Procedures</text>

  <rect x="210" y="320" width="140" height="60" rx="8" fill="#ffffff" stroke="#e4e0d8" stroke-width="1.5"></rect>
  <text x="280" y="346" text-anchor="middle" fill="#6b6863" font-size="14" font-weight="600">Experiment</text>
  <text x="280" y="362" text-anchor="middle" fill="#6b6863" font-size="14" font-weight="600">planning</text>

  <rect x="370" y="320" width="140" height="60" rx="8" fill="#ffffff" stroke="#e4e0d8" stroke-width="1.5"></rect>
  <text x="440" y="354" text-anchor="middle" fill="#6b6863" font-size="14" font-weight="600">Worksheets</text>

  <rect x="530" y="320" width="140" height="60" rx="8" fill="#ffffff" stroke="#e4e0d8" stroke-width="1.5"></rect>
  <text x="600" y="354" text-anchor="middle" fill="#6b6863" font-size="14" font-weight="600">Analysis</text>

  <rect x="1010" y="320" width="140" height="60" rx="8" fill="#ffffff" stroke="#e4e0d8" stroke-width="1.5"></rect>
  <text x="1080" y="346" text-anchor="middle" fill="#6b6863" font-size="14" font-weight="600">Publish /</text>
  <text x="1080" y="362" text-anchor="middle" fill="#6b6863" font-size="14" font-weight="600">review</text>

  <rect x="50" y="550" width="140" height="60" rx="8" fill="#ffffff" stroke="#e4e0d8" stroke-width="1.5"></rect>
  <text x="120" y="584" text-anchor="middle" fill="#6b6863" font-size="14" font-weight="600">Workflows</text>

  <rect x="370" y="550" width="140" height="60" rx="8" fill="#ffffff" stroke="#e4e0d8" stroke-width="1.5"></rect>
  <text x="440" y="584" text-anchor="middle" fill="#6b6863" font-size="14" font-weight="600">Documents</text>

  <rect x="530" y="550" width="140" height="60" rx="8" fill="#ffffff" stroke="#e4e0d8" stroke-width="1.5"></rect>
  <text x="600" y="584" text-anchor="middle" fill="#6b6863" font-size="14" font-weight="600">Analysis</text>

  <rect x="1010" y="550" width="140" height="60" rx="8" fill="#ffffff" stroke="#e4e0d8" stroke-width="1.5"></rect>
  <text x="1080" y="576" text-anchor="middle" fill="#6b6863" font-size="14" font-weight="600">Publish /</text>
  <text x="1080" y="592" text-anchor="middle" fill="#6b6863" font-size="14" font-weight="600">review</text>

  <line x1="760" y1="150" x2="760" y2="200" stroke="#b4b2a9" stroke-width="1" stroke-dasharray="2 2"></line>
  <line x1="920" y1="150" x2="920" y2="200" stroke="#b4b2a9" stroke-width="1" stroke-dasharray="2 2"></line>
  <line x1="760" y1="200" x2="920" y2="200" stroke="#b4b2a9" stroke-width="1" stroke-dasharray="2 2"></line>
  <text x="840" y="215" text-anchor="middle" fill="#6b6863" font-size="13" font-style="italic">Unique to Bioanalytical, no shared equivalent</text>

</svg>